<svg width="79" height="78" viewBox="0 0 79 78" fill="none" xmlns="http://www.w3.org/2000/svg">
<path opacity="0.7" d="M54.6702 73.6963C55.7141 72.9964 56.6745 72.2142 57.5931 71.3909C57.5931 71.3909 73.3768 57.7232 77.7194 34.587C79.1808 28.2472 78.0534 21.2487 74.0031 15.3205C69.9528 9.39236 63.8147 5.68727 57.3008 4.65808C34.0011 -0.0762005 15.2528 9.14536 15.1692 9.18653C14.0418 9.68054 12.9562 10.2981 11.9123 10.9979C3.35236 16.679 -0.0298615 27.1768 2.72602 36.81C2.72602 36.81 6.60931 52.4126 24.272 69.95C32.3309 78.2247 45.1081 80.0361 54.6702 73.6963Z" fill="url(#paint0_linear)"/>
<path opacity="0.7" d="M27.4454 68.8795C28.5728 68.8795 29.7002 68.7972 30.8276 68.5913C30.8276 68.5913 49.6595 66.2036 64.7751 51.0127C69.1177 47.0195 71.8735 41.1737 71.8735 34.6692C71.8735 28.2058 69.1594 22.36 64.8168 18.3668C49.743 3.21706 30.9946 0.788176 30.8694 0.788176C29.7837 0.623506 28.6563 0.499997 27.5289 0.499997C18.2174 0.499997 10.2838 6.67515 7.40264 15.2792C7.40264 15.2792 2.30843 28.9469 6.60927 50.8481C8.32126 61.14 17.0065 68.8795 27.4454 68.8795Z" fill="url(#paint1_radial)"/>
<path opacity="0.7" d="M64.3154 57.5584C64.8165 56.5704 65.2758 55.5 65.5681 54.4708C65.5681 54.4708 71.915 36.8099 64.9835 16.6377C63.3133 10.9978 59.263 5.97531 53.4172 3.0524C47.5714 0.129499 41.0575 -0.117514 35.4622 1.8997C14.9601 8.32186 4.27066 23.7186 4.22891 23.8421C3.56082 24.7066 2.97623 25.6535 2.47517 26.6826C-1.74216 34.875 0.303856 44.6318 6.776 51.0539C6.776 51.0539 16.8391 61.6752 38.6356 67.8503C48.6988 70.8556 59.6388 66.7388 64.3154 57.5584Z" fill="url(#paint2_linear)"/>
<path d="M54.0359 33.4805L58.4423 29.0974C58.9483 28.5941 58.9489 27.7728 58.4439 27.2686C49.8701 18.7097 51.6469 20.4861 49.3289 18.1597C48.8275 17.6566 48.0147 17.6566 47.5133 18.1597L44.2157 21.469C43.416 22.2717 40.6856 21.978 38.1448 22.5242C35.9782 21.2603 34.1938 21.3315 32.7447 21.3896C31.4613 21.4413 30.7961 21.4536 29.915 20.8958C29.4735 20.6023 29.481 20.5756 26.2943 17.3774C25.7929 16.8742 24.9801 16.8742 24.4787 17.3774C23.5818 18.2774 15.4594 26.4054 15.3774 26.4873C15.1356 26.7293 14.9997 27.058 15 27.4007C15.0003 27.7435 15.1365 28.0719 15.3787 28.3135L19.6341 32.5603C19.7681 32.7382 19.8839 33.4714 19.9607 33.9576C20.1235 34.9885 20.3332 36.3137 21.0639 37.5154L20.9355 37.6443C19.4303 39.155 19.4301 41.6002 20.9355 43.111C21.6325 43.8106 22.5325 44.1849 23.4469 44.2351C23.4969 45.1528 23.8699 46.056 24.5668 46.7556C25.2441 47.4354 26.1293 47.8304 27.0784 47.8817C27.1288 48.7988 27.5017 49.7011 28.1982 50.4001C28.8951 51.0997 29.7951 51.474 30.7095 51.5241C30.7595 52.4419 31.1324 53.3451 31.8295 54.0446C33.0306 55.2502 34.8023 55.479 36.2141 54.8006L37.2765 55.8669C38.7817 57.3776 41.2181 57.3778 42.7234 55.8669C43.4006 55.1871 43.7942 54.2988 43.8454 53.3462C44.7591 53.2956 45.6583 52.9213 46.3547 52.2224C47.0512 51.5233 47.424 50.6209 47.4745 49.7039C48.4236 49.6525 49.3087 49.2576 49.986 48.5779C50.683 47.8783 51.056 46.9751 51.106 46.0574C52.0204 46.0072 52.9203 45.6329 53.6173 44.9334C55.119 43.4262 55.119 40.9738 53.6173 39.4666L52.6086 38.4542C53.8381 36.4988 53.5876 34.2996 54.0172 33.504C54.0233 33.4957 54.0295 33.4868 54.0359 33.4805ZM42.7996 24.5863L51.3996 33.2177C51.1232 34.2939 51.1476 35.491 50.7083 36.547L42.7234 28.533C41.2182 27.0223 38.7817 27.0221 37.2764 28.533L33.6451 32.1775C33.1432 32.6812 32.3313 32.6812 31.8295 32.1775C31.3289 31.6751 31.3288 30.8576 31.8295 30.3553L35.4608 26.7107C37.5235 24.6404 40.3587 24.8822 42.7996 24.5863ZM20.0682 29.3592L18.1034 27.3985C19.8378 25.6629 23.5942 21.9038 25.3857 20.1099L27.3348 22.0661L20.0682 29.3592ZM24.5667 41.2888C24.0661 41.7912 23.2516 41.7912 22.751 41.2888C22.2493 40.7851 22.2494 39.9702 22.7511 39.4665C23.4505 38.7646 23.8397 38.3739 24.5667 37.6443C25.0673 37.1418 25.8818 37.1419 26.3824 37.6443C26.8842 38.1479 26.8842 38.9628 26.3824 39.4665L24.5667 41.2888ZM28.1981 44.9334C27.6963 45.4369 26.8843 45.437 26.3825 44.9334C25.8818 44.4309 25.8818 43.6135 26.3825 43.111L28.1981 41.2888C28.6988 40.7863 29.5133 40.7865 30.0137 41.2888C30.5144 41.7912 30.5144 42.6087 30.0137 43.111L28.1981 44.9334ZM30.0138 48.5779C29.5132 48.0755 29.5132 47.258 30.0137 46.7556L31.8295 44.9334C32.3313 44.4297 33.1432 44.4297 33.6451 44.9334C34.1469 45.4371 34.1469 46.252 33.6451 46.7556L31.8295 48.5779C31.3288 49.0802 30.5144 49.0801 30.0138 48.5779ZM37.2763 50.4L35.4606 52.2223C34.9588 52.726 34.1469 52.726 33.645 52.2224C33.1445 51.7199 33.1445 50.9025 33.645 50.4001L35.4606 48.5779C35.4607 48.5778 35.4608 48.5777 35.4609 48.5776C35.9615 48.0755 36.7755 48.0756 37.2761 48.5777C37.2762 48.5777 37.2763 48.5778 37.2763 48.5779L37.2767 48.5782C37.7769 49.0806 37.7767 49.8978 37.2763 50.4ZM40.9076 54.0447C40.4059 54.5483 39.5939 54.5483 39.092 54.0447L38.1841 53.1335L39.092 52.2224C39.4102 51.9031 39.6603 51.5409 39.8437 51.1546L40.9076 52.2224C41.4095 52.726 41.4095 53.541 40.9076 54.0447ZM51.8016 43.111C51.3011 43.6134 50.4866 43.6134 49.986 43.111L43.7682 36.8706C43.2669 36.3673 42.4539 36.3673 41.9525 36.8706C41.4511 37.3738 41.4511 38.1896 41.9525 38.6928L48.1704 44.9333C48.6709 45.4357 48.6709 46.2532 48.1704 46.7555C47.6688 47.2588 46.8571 47.2593 46.355 46.7558C46.3549 46.7557 46.3548 46.7556 46.3547 46.7555C46.3546 46.7554 46.3545 46.7553 46.3543 46.7552L40.2171 40.5956C39.7158 40.0924 38.9029 40.0924 38.4015 40.5956C37.9001 41.0988 37.9001 41.9147 38.4015 42.4179L44.539 48.5778C45.0396 49.0802 45.0396 49.8977 44.539 50.4C44.0384 50.9025 43.224 50.9025 42.7233 50.4L39.092 46.7554C38.3956 46.0564 37.4964 45.6822 36.5827 45.6316C36.5316 44.679 36.138 43.7907 35.4607 43.1109C34.7835 42.4312 33.8984 42.0362 32.9492 41.9848C32.8988 41.0677 32.5259 40.1654 31.8295 39.4664C31.1522 38.7867 30.2671 38.3917 29.318 38.3403C29.2676 37.4232 28.8946 36.5208 28.1981 35.8219C26.7696 34.3883 24.4897 34.3194 22.9782 35.6131C22.7217 34.9734 22.6077 34.2566 22.4967 33.5541C22.3623 32.7026 22.2325 31.8891 21.8337 31.2318L29.4742 23.5635C30.6682 24.0512 31.8025 24.0066 32.8476 23.9646C33.4637 23.9396 34.0644 23.9159 34.6923 23.9975C34.3341 24.2545 33.9837 24.5485 33.6451 24.8884L30.0137 28.5329C28.512 30.04 28.5121 32.4924 30.0137 33.9996C31.5191 35.5105 33.9554 35.5105 35.4607 33.9996L39.092 30.3551C39.5938 29.8515 40.4058 29.8515 40.9076 30.3551L51.8016 41.2887C52.3022 41.7912 52.3022 42.6087 51.8016 43.111ZM45.5462 23.6984C45.8978 23.4519 45.8247 23.4988 48.4211 20.8931C49.599 22.0753 48.3658 20.8427 55.7165 28.1805L52.8515 31.0303L45.5462 23.6984Z" fill="white"/>
<defs>
<linearGradient id="paint0_linear" x1="40.0662" y1="3.36031" x2="40.0662" y2="77.5102" gradientUnits="userSpaceOnUse">
<stop stop-color="#F1E749"/>
<stop offset="0.2052" stop-color="#E0E054"/>
<stop offset="0.6224" stop-color="#B5D073"/>
<stop offset="1" stop-color="#91C48D"/>
</linearGradient>
<radialGradient id="paint1_radial" cx="0" cy="0" r="1" gradientUnits="userSpaceOnUse" gradientTransform="translate(45.9092 41.1086) rotate(90) scale(61.3995 59.5549)">
<stop stop-color="#F1E749"/>
<stop offset="0.0515038" stop-color="#E0DF4C"/>
<stop offset="0.157" stop-color="#B5CD55"/>
<stop offset="0.3057" stop-color="#7FB95E"/>
<stop offset="0.4486" stop-color="#52AC62"/>
<stop offset="0.5504" stop-color="#60B068"/>
<stop offset="0.7554" stop-color="#7ABA7B"/>
<stop offset="0.9118" stop-color="#8AC188"/>
<stop offset="1" stop-color="#91C48D"/>
</radialGradient>
<linearGradient id="paint2_linear" x1="34.2606" y1="0.605519" x2="34.2606" y2="68.8005" gradientUnits="userSpaceOnUse">
<stop stop-color="#75B878"/>
<stop offset="0.0849187" stop-color="#74B37A"/>
<stop offset="0.2224" stop-color="#73A77F"/>
<stop offset="0.3952" stop-color="#729485"/>
<stop offset="0.5966" stop-color="#717D8C"/>
<stop offset="0.8192" stop-color="#716896"/>
<stop offset="1" stop-color="#73589F"/>
</linearGradient>
</defs>
</svg>
