<svg width="79" height="78" viewBox="0 0 79 78" fill="none" xmlns="http://www.w3.org/2000/svg">
<path opacity="0.7" d="M24.3323 4.30396C23.2884 5.00381 22.328 5.786 21.4093 6.60935C21.4093 6.60935 5.62568 20.277 1.28308 43.4133C-0.178372 49.7531 0.949031 56.7516 4.99934 62.6797C9.04965 68.6079 15.1877 72.313 21.7016 73.3422C45.0014 78.0764 63.7497 68.8549 63.8332 68.8137C64.9606 68.3197 66.0463 67.7022 67.0902 67.0023C75.6501 61.3212 79.0323 50.8234 76.2764 41.1902C76.2764 41.1902 72.3931 25.5877 54.7304 8.05022C46.6716 -0.22448 33.8943 -2.03586 24.3323 4.30396Z" fill="url(#paint0_linear)"/>
<path opacity="0.7" d="M51.557 9.12073C50.4296 9.12073 49.3022 9.20307 48.1748 9.40891C48.1748 9.40891 29.343 11.7966 14.2274 26.9875C9.88479 30.9808 7.12891 36.8266 7.12891 43.3311C7.12891 49.7944 9.84303 55.6402 14.1856 59.6335C29.2595 74.7832 48.0078 77.2121 48.1331 77.2121C49.2187 77.3767 50.3461 77.5002 51.4735 77.5002C60.7851 77.5002 68.7187 71.3251 71.5998 62.7211C71.5998 62.7211 76.694 49.0534 72.3932 27.1522C70.6812 16.8602 61.996 9.12073 51.557 9.12073Z" fill="url(#paint1_radial)"/>
<path opacity="0.7" d="M14.6868 20.4418C14.1857 21.4299 13.7264 22.5002 13.4341 23.5294C13.4341 23.5294 7.08722 41.1903 14.0187 61.3625C15.6889 67.0025 19.7392 72.0249 25.585 74.9478C31.4308 77.8707 37.9447 78.1178 43.54 76.1005C64.0421 69.6784 74.7315 54.2817 74.7733 54.1582C75.4414 53.2936 76.026 52.3468 76.527 51.3176C80.7444 43.1252 78.6983 33.3685 72.2262 26.9463C72.2262 26.9463 62.1631 16.3251 40.3666 10.1499C30.3034 7.14468 19.3634 11.2614 14.6868 20.4418Z" fill="url(#paint2_linear)"/>
<path d="M60.347 28.3421H52.6489V27.1791C52.6489 26.528 52.1227 26 51.474 26C50.8253 26 50.2992 26.528 50.2992 27.1791V28.3421H43.4356V27.1791C43.4356 26.528 42.9095 26 42.2608 26C41.6121 26 41.086 26.528 41.086 27.1791V28.3421H34.5141V27.1791C34.5141 26.528 33.988 26 33.3393 26C32.6906 26 32.1645 26.528 32.1645 27.1791V28.3421H24.1748C23.5261 28.3421 23 28.8702 23 29.5212V56.1637C23 56.8147 23.5261 57.3428 24.1748 57.3428H31.3856C32.541 62.2978 36.9768 66 42.2608 66C47.5448 66 51.9806 62.2976 53.136 57.3428H60.3468C60.9955 57.3428 61.5216 56.8147 61.5216 56.1637V29.5212C61.5218 28.8702 60.9959 28.3421 60.347 28.3421ZM32.1645 30.7003V31.7659C32.1645 32.4169 32.6906 32.945 33.3393 32.945C33.988 32.945 34.5141 32.4169 34.5141 31.7659V30.7003H41.086V31.7659C41.086 32.4169 41.6121 32.945 42.2608 32.945C42.9095 32.945 43.4356 32.4169 43.4356 31.7659V30.7003H50.2992V31.7659C50.2992 32.4169 50.8253 32.945 51.474 32.945C52.1227 32.945 52.6489 32.4169 52.6489 31.7659V30.7003H59.1721V35.5221H25.3497V30.7003H32.1645ZM42.2608 63.6418C37.3966 63.6418 33.4392 59.6699 33.4392 54.788C33.4392 49.9061 37.3966 45.9343 42.2608 45.9343C47.125 45.9343 51.0824 49.9059 51.0824 54.788C51.0824 59.6701 47.1252 63.6418 42.2608 63.6418ZM53.4272 54.9845C53.4284 54.9189 53.4321 54.8539 53.4321 54.788C53.4321 48.6057 48.4206 43.576 42.2608 43.576C36.101 43.576 31.0895 48.6057 31.0895 54.788C31.0895 54.8539 31.0934 54.9189 31.0944 54.9845H25.3495V37.8805H59.1719V54.9845H53.4272Z" fill="white"/>
<path d="M43.4356 55.0857V49.3815C43.4356 48.7304 42.9095 48.2024 42.2608 48.2024C41.6121 48.2024 41.0859 48.7304 41.0859 49.3815V55.5742C41.0859 55.8869 41.2097 56.1868 41.43 56.408L44.1301 59.1182C44.3596 59.3483 44.6602 59.4635 44.9609 59.4635C45.2615 59.4635 45.5622 59.3483 45.7917 59.1182C46.2505 58.6578 46.2505 57.9112 45.7917 57.4508L43.4356 55.0857Z" fill="white"/>
<defs>
<linearGradient id="paint0_linear" x1="38.9362" y1="74.6399" x2="38.9362" y2="0.490066" gradientUnits="userSpaceOnUse">
<stop stop-color="#F1E749"/>
<stop offset="0.2052" stop-color="#E0E054"/>
<stop offset="0.6224" stop-color="#B5D073"/>
<stop offset="1" stop-color="#91C48D"/>
</linearGradient>
<radialGradient id="paint1_radial" cx="0" cy="0" r="1" gradientUnits="userSpaceOnUse" gradientTransform="translate(33.0932 36.8917) rotate(-90) scale(61.3995 59.5549)">
<stop stop-color="#F1E749"/>
<stop offset="0.0515038" stop-color="#E0DF4C"/>
<stop offset="0.157" stop-color="#B5CD55"/>
<stop offset="0.3057" stop-color="#7FB95E"/>
<stop offset="0.4486" stop-color="#52AC62"/>
<stop offset="0.5504" stop-color="#60B068"/>
<stop offset="0.7554" stop-color="#7ABA7B"/>
<stop offset="0.9118" stop-color="#8AC188"/>
<stop offset="1" stop-color="#91C48D"/>
</radialGradient>
<linearGradient id="paint2_linear" x1="44.7416" y1="77.3947" x2="44.7416" y2="9.19972" gradientUnits="userSpaceOnUse">
<stop stop-color="#75B878"/>
<stop offset="0.0849187" stop-color="#74B37A"/>
<stop offset="0.2224" stop-color="#73A77F"/>
<stop offset="0.3952" stop-color="#729485"/>
<stop offset="0.5966" stop-color="#717D8C"/>
<stop offset="0.8192" stop-color="#716896"/>
<stop offset="1" stop-color="#73589F"/>
</linearGradient>
</defs>
</svg>
