<svg width="78" height="78" viewBox="0 0 78 78" fill="none" xmlns="http://www.w3.org/2000/svg">
<path opacity="0.7" d="M73.7296 23.6421C73.0292 22.5991 72.2464 21.6394 71.4224 20.7215C71.4224 20.7215 57.744 4.95018 34.5897 0.610971C28.2449 -0.849339 21.241 0.277183 15.3082 4.32433C9.37539 8.37147 5.66741 14.5048 4.63741 21.0136C-0.100574 44.2951 9.1282 63.0288 9.1694 63.1122C9.66379 64.2387 10.2818 65.3236 10.9822 66.3666C16.6678 74.9199 27.1737 78.2995 36.8145 75.5457C36.8145 75.5457 52.4293 71.6655 69.9804 54.0166C78.2616 45.964 80.0744 33.1967 73.7296 23.6421Z" fill="url(#paint0_linear)"/>
<path opacity="0.7" d="M68.9091 50.8456C68.9091 49.719 68.8267 48.5925 68.6207 47.466C68.6207 47.466 66.2311 28.6489 51.0283 13.5451C47.0319 9.20588 41.1815 6.45215 34.672 6.45215C28.2036 6.45215 22.3532 9.16415 18.3568 13.5034C3.19526 28.5654 0.764476 47.2991 0.764476 47.4243C0.599676 48.5091 0.476072 49.6356 0.476072 50.7621C0.476072 60.0664 6.65605 67.9938 15.2668 70.8727C15.2668 70.8727 28.9452 75.9629 50.8635 71.6654C61.1635 69.9548 68.9091 61.2764 68.9091 50.8456Z" fill="url(#paint1_radial)"/>
<path opacity="0.7" d="M57.579 14.0043C56.5902 13.5036 55.519 13.0446 54.489 12.7526C54.489 12.7526 36.8143 6.41066 16.6264 13.3367C10.982 15.0056 5.9556 19.0528 3.03041 24.894C0.105216 30.7352 -0.14199 37.2441 1.8768 42.835C8.30398 63.321 23.7127 74.0021 23.8363 74.0438C24.7015 74.7114 25.6491 75.2955 26.6791 75.7962C34.8779 80.0103 44.6423 77.9658 51.0695 71.4987C51.0695 71.4987 61.699 61.4435 67.879 39.664C70.8866 29.6087 66.7666 18.6773 57.579 14.0043Z" fill="url(#paint2_linear)"/>
<path d="M52.2851 33.2102C50.1827 28.2908 46.61 24.7131 41.6676 22.5975C39.1973 21.5401 36.6312 21 33.9274 21C31.2241 21 28.6552 21.535 26.1877 22.5975C21.2862 24.7075 17.6759 28.2829 15.5698 33.2102C14.5144 35.6787 14 38.2649 14 40.978C14 43.6917 14.5144 46.2993 15.5698 48.7684C17.6759 53.6957 21.2862 57.2925 26.1877 59.403C28.6552 60.4655 31.2241 61 33.9274 61C36.6312 61 39.1973 60.4599 41.6676 59.403C46.6101 57.2874 50.1827 53.6873 52.2851 48.7684C53.3437 46.2914 53.8767 43.6917 53.8767 40.978C53.8767 38.2649 53.3437 35.6871 52.2851 33.2102ZM27.2993 24.7201C25.577 26.9081 24.3128 29.6871 23.5058 33.057H18.295C20.2136 29.315 23.4407 26.3171 27.2993 24.7201ZM16.42 40.978C16.42 39.0744 16.7252 37.2365 17.314 35.464H23.0262C22.7429 37.3237 22.6118 39.1621 22.6118 40.978C22.6118 42.7725 22.743 44.589 23.0262 46.4487H17.2703C16.7033 44.6762 16.42 42.8383 16.42 40.978ZM18.295 48.8557H23.5058C24.3128 52.291 25.5771 55.1138 27.2994 57.2804C23.3751 55.639 20.1481 52.6412 18.295 48.8557ZM32.7065 58.3742C31.2892 57.9587 29.9594 56.9083 28.7604 55.2017C27.5613 53.4945 26.6455 51.3723 26.0133 48.8557H32.7065V58.3742ZM32.7065 46.4487H25.4681C25.1844 44.5011 25.0318 42.6847 25.0318 40.978C25.0318 39.1402 25.1844 37.3018 25.5119 35.464H32.7064V46.4487H32.7065ZM32.7065 33.0571H26.0133C26.6891 30.5624 27.6101 28.4654 28.8041 26.7769C30.0083 25.0735 31.2893 24.0198 32.7066 23.6258V33.0571H32.7065ZM49.5818 33.0571H44.3709C43.5644 29.6871 42.2997 26.9081 40.5773 24.7201C44.4365 26.3171 47.6631 29.315 49.5818 33.0571ZM35.1702 23.6258C36.5875 24.0198 37.8684 25.0735 39.0727 26.7769C40.2671 28.4654 41.1876 30.5624 41.8634 33.0571H35.1702V23.6258ZM35.1702 35.464H42.3648C42.6922 37.3018 42.8448 39.1402 42.8448 40.978C42.8448 42.6848 42.6922 44.5011 42.4085 46.4487H35.1702V35.464ZM35.1702 58.3742V48.8557H41.8634C41.2095 51.3723 40.2816 53.4861 39.0945 55.2017C37.9047 56.9214 36.6093 57.9806 35.1702 58.3742ZM40.5774 57.2804C42.2998 55.1138 43.5644 52.291 44.371 48.8557H49.5818C47.7287 52.6412 44.5016 55.639 40.5774 57.2804ZM50.6064 46.4487H44.8505C45.1342 44.5889 45.2649 42.7725 45.2649 40.978C45.2649 39.1621 45.1342 37.3238 44.8505 35.464H50.5627C51.1516 37.2364 51.4567 39.0743 51.4567 40.978C51.4566 42.8383 51.1735 44.6762 50.6064 46.4487Z" fill="white"/>
<defs>
<linearGradient id="paint0_linear" x1="3.33863" y1="38.2347" x2="77.5465" y2="38.2347" gradientUnits="userSpaceOnUse">
<stop stop-color="#F1E749"/>
<stop offset="0.2052" stop-color="#E0E054"/>
<stop offset="0.6224" stop-color="#B5D073"/>
<stop offset="1" stop-color="#91C48D"/>
</linearGradient>
<radialGradient id="paint1_radial" cx="0" cy="0" r="1" gradientUnits="userSpaceOnUse" gradientTransform="translate(41.1164 32.3962) scale(61.4475 59.5084)">
<stop stop-color="#F1E749"/>
<stop offset="0.0515038" stop-color="#E0DF4C"/>
<stop offset="0.157" stop-color="#B5CD55"/>
<stop offset="0.3057" stop-color="#7FB95E"/>
<stop offset="0.4486" stop-color="#52AC62"/>
<stop offset="0.5504" stop-color="#60B068"/>
<stop offset="0.7554" stop-color="#7ABA7B"/>
<stop offset="0.9118" stop-color="#8AC188"/>
<stop offset="1" stop-color="#91C48D"/>
</radialGradient>
<linearGradient id="paint2_linear" x1="0.581608" y1="44.0356" x2="68.8299" y2="44.0356" gradientUnits="userSpaceOnUse">
<stop stop-color="#75B878"/>
<stop offset="0.0849187" stop-color="#74B37A"/>
<stop offset="0.2224" stop-color="#73A77F"/>
<stop offset="0.3952" stop-color="#729485"/>
<stop offset="0.5966" stop-color="#717D8C"/>
<stop offset="0.8192" stop-color="#716896"/>
<stop offset="1" stop-color="#73589F"/>
</linearGradient>
</defs>
</svg>
