<svg width="155" height="81" viewBox="0 0 155 81" fill="none" xmlns="http://www.w3.org/2000/svg">
<path d="M17.8357 11.189V15.6714H4.44185V22.4122H17.8357V26.8605H4.44185V33.5671H17.8357V38.0495H-2.60681e-07V11.189H17.8357Z" fill="#333333"/>
<path d="M35.5006 33.5671H23.166L20.8767 38.0495H15.8882L29.2821 11.189L42.6759 38.0495H37.6874L35.5006 33.5671ZM25.3527 29.1188H33.2456L29.3162 21.2146L25.3527 29.1188Z" fill="#333333"/>
<path d="M48.5869 26.8605C46.4343 26.8605 44.5893 26.1077 43.0517 24.568C41.5483 23.0624 40.7625 21.1804 40.7625 18.9905C40.7625 16.8348 41.5141 15.0213 43.0517 13.4816C44.5551 11.9418 46.4002 11.1548 48.5869 11.1548H63.1083V15.6372H48.5869C48.1086 15.6372 47.6986 15.7057 47.2885 15.8768C46.8785 16.0479 46.5027 16.2874 46.1952 16.5953C45.8877 16.9033 45.6485 17.2797 45.4776 17.6903C45.3068 18.1009 45.2385 18.5457 45.2385 18.9563C45.2385 19.8802 45.546 20.6672 46.1952 21.3515C46.8444 22.0359 47.6302 22.3438 48.5869 22.3438H55.2839C57.4365 22.3438 59.2815 23.0966 60.8191 24.6364C62.3567 26.1419 63.1425 27.9897 63.1425 30.1796C63.1425 32.3353 62.3567 34.1488 60.8191 35.7228C59.3157 37.2284 57.4706 38.0153 55.2839 38.0153H40.7966V33.5329H55.2839C55.7622 33.5329 56.1722 33.4645 56.5823 33.2934C56.9923 33.1223 57.3681 32.8828 57.6756 32.609C57.9831 32.3011 58.2223 31.9589 58.3932 31.5483C58.564 31.1377 58.6323 30.6929 58.6323 30.248C58.6323 29.3584 58.2907 28.5714 57.6415 27.887C56.9923 27.2027 56.2064 26.8947 55.2839 26.8947H48.5869V26.8605Z" fill="#333333"/>
<path d="M80.2265 11.189H85.8984L74.8963 25.2865V38.0495H70.4544V25.526L59.2473 11.2232H64.9534L72.5729 21.0093L80.2265 11.189Z" fill="#333333"/>
<path d="M100.42 -4.17691e-06L61.9124 80" stroke="#333333" stroke-width="2" stroke-miterlimit="10"/>
<path d="M29.282 41.3689H51.662V45.8514H42.7442V68.1952H38.2682V45.8514H29.3162V41.3689H29.282Z" fill="black"/>
<path d="M52.7556 41.3687L61.161 58.2036L69.5663 41.3687H74.5548L61.161 68.2292L47.7671 41.3687H52.7556Z" fill="black"/>
<path opacity="0.7" d="M151.843 34.7305C151.262 33.8751 150.613 33.0881 149.929 32.3353C149.929 32.3353 138.586 19.4012 119.383 15.8426C114.121 14.645 108.313 15.5689 103.393 18.8879C98.4724 22.207 95.3972 27.237 94.543 32.5749C90.6137 51.6681 98.2674 67.0317 98.3015 67.1001C98.7115 68.024 99.2241 68.9136 99.8049 69.769C104.52 76.7836 113.233 79.5552 121.228 77.2968C121.228 77.2968 134.178 74.1146 148.734 59.6407C155.601 53.0368 157.105 42.5663 151.843 34.7305Z" fill="url(#paint0_linear)"/>
<path opacity="0.7" d="M147.845 57.0402C147.845 56.1164 147.777 55.1925 147.606 54.2686C147.606 54.2686 145.624 38.8367 133.016 26.45C129.702 22.8914 124.85 20.6331 119.452 20.6331C114.087 20.6331 109.235 22.8572 105.921 26.4158C93.3471 38.7682 91.3312 54.1318 91.3312 54.2344C91.1945 55.1241 91.092 56.0479 91.092 56.9718C91.092 64.6023 96.2172 71.1035 103.358 73.4645C103.358 73.4645 114.702 77.639 132.88 74.1147C141.422 72.7118 147.845 65.5946 147.845 57.0402Z" fill="url(#paint1_radial)"/>
<path opacity="0.7" d="M138.449 26.8265C137.629 26.4158 136.741 26.0395 135.886 25.7999C135.886 25.7999 121.228 20.5989 104.486 26.279C99.8049 27.6477 95.6364 30.9667 93.2105 35.7572C90.7845 40.5476 90.5795 45.8855 92.2538 50.4706C97.584 67.2713 110.363 76.0309 110.465 76.0651C111.183 76.6126 111.969 77.0916 112.823 77.5022C119.622 80.9582 127.72 79.2815 133.05 73.9779C133.05 73.9779 141.866 65.7315 146.991 47.8701C149.485 39.6237 146.068 30.6588 138.449 26.8265Z" fill="url(#paint2_linear)"/>
<path d="M132.64 52.1472C135.135 50.7101 135.135 48.3491 132.64 46.9119L113.575 35.894C111.08 34.4568 109.064 35.6202 109.064 38.4945V60.5304C109.064 63.4047 111.08 64.568 113.575 63.1309L132.64 52.1472C135.135 50.7101 135.135 48.3491 132.64 46.9119L113.575 35.894C111.08 34.4568 109.064 35.6202 109.064 38.4945V60.5304C109.064 63.4047 111.08 64.568 113.575 63.1309L132.64 52.1472Z" fill="white"/>
<path d="M111.593 62.6178C110.363 62.6178 110.226 61.1807 110.226 60.5648V38.5289C110.226 37.913 110.363 36.4758 111.593 36.4758C112.003 36.4758 112.515 36.6469 113.028 36.9207L132.093 47.9386C132.913 48.4177 133.392 48.9994 133.392 49.5468C133.392 50.0943 132.913 50.676 132.093 51.155L113.028 62.173C112.515 62.4467 112.003 62.6178 111.593 62.6178Z" fill="url(#paint3_linear)"/>
<path d="M113.54 60.5304V38.4944C113.54 38.1865 113.574 37.7074 113.745 37.2968L113.028 36.8862C112.515 36.5783 112.003 36.4414 111.593 36.4414C110.363 36.4414 110.226 37.8785 110.226 38.4944V60.5304C110.226 61.1463 110.363 62.5834 111.593 62.5834C112.003 62.5834 112.515 62.4123 113.028 62.1386L113.745 61.728C113.574 61.3174 113.54 60.8383 113.54 60.5304Z" fill="url(#paint4_linear)"/>
<defs>
<linearGradient id="paint0_linear" x1="93.4659" y1="46.6979" x2="155.008" y2="46.6979" gradientUnits="userSpaceOnUse">
<stop stop-color="#F1E749"/>
<stop offset="0.2052" stop-color="#E0E054"/>
<stop offset="0.6224" stop-color="#B5D073"/>
<stop offset="1" stop-color="#91C48D"/>
</linearGradient>
<radialGradient id="paint1_radial" cx="0" cy="0" r="1" gradientUnits="userSpaceOnUse" gradientTransform="translate(124.796 41.9098) scale(50.9599 48.803)">
<stop stop-color="#F1E749"/>
<stop offset="0.0515038" stop-color="#E0DF4C"/>
<stop offset="0.157" stop-color="#B5CD55"/>
<stop offset="0.3057" stop-color="#7FB95E"/>
<stop offset="0.4486" stop-color="#52AC62"/>
<stop offset="0.5504" stop-color="#60B068"/>
<stop offset="0.7554" stop-color="#7ABA7B"/>
<stop offset="0.9118" stop-color="#8AC188"/>
<stop offset="1" stop-color="#91C48D"/>
</radialGradient>
<linearGradient id="paint2_linear" x1="91.1796" y1="51.4552" x2="147.78" y2="51.4552" gradientUnits="userSpaceOnUse">
<stop stop-color="#75B878"/>
<stop offset="0.0849187" stop-color="#74B37A"/>
<stop offset="0.2224" stop-color="#73A77F"/>
<stop offset="0.3952" stop-color="#729485"/>
<stop offset="0.5966" stop-color="#717D8C"/>
<stop offset="0.8192" stop-color="#716896"/>
<stop offset="1" stop-color="#73589F"/>
</linearGradient>
<linearGradient id="paint3_linear" x1="111.007" y1="49.521" x2="125.399" y2="49.521" gradientUnits="userSpaceOnUse">
<stop stop-color="white" stop-opacity="0.3"/>
<stop offset="1" stop-color="white" stop-opacity="0"/>
</linearGradient>
<linearGradient id="paint4_linear" x1="111.985" y1="40.9216" x2="111.985" y2="52.2126" gradientUnits="userSpaceOnUse">
<stop stop-color="white" stop-opacity="0.4"/>
<stop offset="1" stop-color="white" stop-opacity="0"/>
</linearGradient>
</defs>
</svg>
